<svg width="20mm" height="19mm" viewBox="0 0 20 19" xmlns="http://www.w3.org/2000/svg"><g fill="none" fill-opacity="0" stroke="#e0e0e0" stroke-linecap="round" stroke-linejoin="round"><path d="M13.323 7.95l-.051-.01 4.624.029-.015 1.965-2.784 6.58-10.35.013L2.107 9.9l.012-1.944z" stroke-width="1.5"/><path d="M9.83 10.003h.184v4.127H9.83zm-3.289.017h.184v4.127h-.184zm6.579-.044h.184v4.127h-.184z"/><path d="M10.91 7.493c0 1.516-1.721.257-3.562.257-1.841 0-3.538 1.197-3.538-.318 0-1.516 1.677-3.365 3.518-3.365 1.84 0 3.581 1.911 3.581 3.426zm4.66-1.543c0 1.625.173 1.947-.888 1.947-.386 0-2.358.173-2.66-.127-.526-.525-.293-.729-.293-1.764 0-1.626.87-2.663 1.931-2.663s1.91.98 1.91 2.606z" stroke-width=".7"/><path stroke-width=".417" d="M12.277 2.137h2.887v1.014h-2.887z"/><ellipse cx="6.436" cy=".833" rx="1.065" ry=".434" transform="skewY(24.215) scale(.91201 1)" stroke-width=".446"/><ellipse cx="7.677" cy="-6.546" rx=".964" ry=".453" transform="matrix(.26804 .9634 -.75154 .65968 0 0)" stroke-width=".434"/></g></svg>