<svg width="20mm" height="19mm" viewBox="0 0 20 19" xmlns="http://www.w3.org/2000/svg"><g stroke="gray"><path fill="none" stroke-width=".709" stroke-linecap="round" stroke-linejoin="round" d="M11.912 2.842h5.716V4.75h-5.716z"/><path d="M18.017 10.527c0 3.293-.041 4.163-.005 5.994.004.193-1.74.117-3.445.112-1.597-.006-3.184.187-3.178-.345.014-1.189.014-3.985.005-5.761-.017-3.294 1.518-5.612 3.347-5.612s3.276 2.318 3.276 5.612z" fill="none" stroke-width="1.028" stroke-linecap="square" stroke-miterlimit="4.8"/><text style="-inkscape-font-specification:'sans-serif, Normal';font-variant-ligatures:normal;font-variant-caps:normal;font-variant-numeric:normal;font-variant-east-asian:normal" x="11.411" y="13.934" transform="scale(1.0686 .9358)" font-weight="400" font-size="5.123" font-family="sans-serif" fill="gray" stroke-width=".407" stroke-linecap="round" stroke-linejoin="round" stroke-miterlimit="4.8"><tspan x="11.411" y="13.934">Id</tspan></text></g><g fill="gray" stroke="gray" stroke-linecap="round" stroke-linejoin="round" stroke-miterlimit="4.8"><path d="M9.922 11.441l-2.48 2.667.012-2.666.001-2.651z" stroke-width=".68"/><path stroke-width=".67" d="M1.629 10.842H7.08v.96H1.629z"/></g></svg>