<svg width="20mm" height="19mm" viewBox="0 0 20 19" xmlns="http://www.w3.org/2000/svg"><path fill="none" stroke="gray" stroke-width=".709" stroke-linecap="round" stroke-linejoin="round" d="M2.434 2.781H8.15v1.908H2.434z"/><g fill="gray" stroke="gray" stroke-width="1.119" stroke-linecap="round" stroke-linejoin="round"><path d="M12.855 6.189h2.86v9.49h-2.86z" transform="matrix(.75229 0 0 .83256 3.833 1.472)"/><path transform="matrix(.00029 -.83256 .75229 .00032 3.833 1.472)" d="M-12.331 9.533h2.86v9.49h-2.86z"/></g><path d="M8.54 10.465c0 3.294-.042 4.164-.006 5.994.004.194-1.74.118-3.444.112-1.598-.005-3.185.188-3.178-.345.014-1.188.013-3.985.004-5.76C1.9 7.171 3.434 4.853 5.263 4.853S8.54 7.172 8.54 10.465z" fill="none" stroke="gray" stroke-width="1.028" stroke-linecap="square" stroke-miterlimit="4.8"/></svg>