<svg width="20mm" height="19mm" viewBox="0 0 20 19" xmlns="http://www.w3.org/2000/svg"><ellipse cx="9.884" cy="9.542" rx="6.416" ry="6.332" fill="none" stroke="#e0e0e0" stroke-width="1.886" stroke-linecap="round" stroke-linejoin="round"/><ellipse cx="9.923" cy="9.557" rx="3.61" ry="3.728" fill="none" stroke="#e0e0e0" stroke-width="1.085" stroke-linecap="round" stroke-linejoin="round"/><path fill="#e0e0e0" d="M8.914 16.555h1.965v1.436H8.914zm.013-15.211h1.965V2.78H8.927zm9.616 6.901l.011 1.965-1.436.008-.01-1.965zm-15.79.009l.01 1.965-1.435.008-.011-1.965zm1.782-3.413l-1.03 1.674-1.223-.753 1.03-1.673zm2.886-1.963l-1.741.91-.665-1.273 1.741-.91zm7.821 13.48l-1.741.91-.665-1.272 1.741-.91zm2.936-4.178l-1.03 1.674-1.223-.752 1.03-1.674zM6.232 17.402L4.61 16.294l.81-1.186 1.623 1.108zm-3.328-2.947L1.845 12.8l1.21-.774 1.059 1.655zm13.744-7.759l-1.06-1.655 1.21-.774 1.06 1.656zm-2.192-2.664l-1.623-1.108.81-1.186 1.622 1.108z"/></svg>