<svg width="20mm" height="19mm" viewBox="0 0 20 19" xmlns="http://www.w3.org/2000/svg"><g fill="none" stroke="gray"><path stroke-width=".709" stroke-linecap="round" stroke-linejoin="round" d="M2.392 2.876h5.716v1.908H2.392z"/><path d="M8.498 10.56c0 3.293-.042 4.163-.006 5.994.004.193-1.74.117-3.444.112-1.598-.006-3.185.187-3.178-.345.014-1.189.013-3.985.004-5.761-.017-3.294 1.518-5.611 3.347-5.611 1.83 0 3.277 2.317 3.277 5.61z" stroke-width="1.028" stroke-linecap="square" stroke-miterlimit="4.8"/></g><g fill="none" stroke="gray"><path stroke-width=".709" stroke-linecap="round" stroke-linejoin="round" d="M11.912 2.842h5.716V4.75h-5.716z"/><path d="M18.017 10.527c0 3.293-.041 4.163-.005 5.994.004.193-1.74.117-3.445.112-1.597-.006-3.184.187-3.178-.345.014-1.189.014-3.985.005-5.761-.017-3.294 1.518-5.612 3.347-5.612s3.276 2.318 3.276 5.612z" stroke-width="1.028" stroke-linecap="square" stroke-miterlimit="4.8"/></g></svg>