<svg width="100mm" height="100mm" viewBox="0 0 100 100" xmlns="http://www.w3.org/2000/svg"><defs><path id="b" d="M266.649 19.624h74.677v48.302h-74.677z"/><path id="a" d="M138.304 208.225h70.494v53.867h-70.494z"/></defs><path d="M24.528 38.812l3.655-5.374 3.87 6.068 7.547-6.958 4.96 5.308 5.66-3.937 5.108 4.09 4.45-4.975 5.162 6.31 6.28-6.613 2.67 3.57s1.642 1.647 1.985 4.136l-.13 38.002c.296 8.246-4.018 7.898-6.622 8.823l-40.406.056c-2.618-.808-3.48-3.11-3.814-5.859z" fill="#ac7137" stroke="#000" stroke-width="2.715" stroke-linecap="round" stroke-linejoin="round"/><path stroke="#000" stroke-width="2.02" stroke-linecap="round" stroke-linejoin="round" fill="none" d="M64.744 40.244h.122v46.502h-.122z"/><path d="M45.288 36.17c1.469 4.34-5.038-4.575-5.906-3.182-1.244 1.997-4.981 5.45-6.944 5.774-.881.146-1.77-.878-2.38-1.582-.814-.94-1.265-1.766-1.832-2.888-.615-1.217-.927-1.213-1.621-5.425-1.813-10.998-2.696-16.665.637-17.214.962-.159 4.8-2.063 6.795-.123 4.916 4.782 8.701 17.112 11.25 24.64z" fill="#eb8c1d" stroke="#000" stroke-width="2.259" stroke-linecap="round" stroke-linejoin="round"/><path d="M71.523 30.986c0 1.148-1.47 2.863-2.707 4.827-.857 1.36-1.995 3.738-3.916 3.371-1.88-.359-1.284-1.38-2.986-3.365-1.4-1.634-2.488-.452-2.488-3.173 0-1.8 2.704-8.66 4.109-9.52.72-.44 3.162-.126 4.061-.126 2.654 0 3.927 5.265 3.927 7.986z" fill="#5ccbe0" stroke="#000" stroke-width="2" stroke-linecap="round" stroke-linejoin="round"/><ellipse cx="66.616" cy="20.805" rx="3.177" ry="2.787" fill="#5025ff" stroke="#000" stroke-width="2" stroke-linecap="round" stroke-linejoin="round"/><ellipse cx="60.933" cy="42.506" rx=".697" ry="2.623" transform="rotate(-12.295)" fill="#fff" fill-opacity=".583"/><path d="M36.266 17.266c.228.415-2.129.707-4.636 1.792-2.508 1.085-4.217 2.553-4.446 2.138-.228-.415 1.281-2.361 3.789-3.446 2.508-1.086 5.064-.899 5.293-.484zM38.363 22.988c.229.414-2.128.706-4.636 1.792-2.507 1.085-4.216 2.552-4.445 2.138-.229-.415 1.28-2.362 3.789-3.447 2.507-1.085 5.064-.898 5.292-.483zM39.8 29.237c.228.414-2.13.706-4.637 1.792-2.507 1.085-4.216 2.552-4.445 2.138-.229-.415 1.28-2.362 3.788-3.447s5.064-.898 5.293-.483z"/><path d="M57.761 35.54c-.289 1.97-1.69 3.061-3.167 2.421-1.33-.576-2.649-2.802-4.499-2.802-3.905 0-5.756 3.056-5.756-.729 0-2.13-.025-5.123 1.805-6.5 2.323-1.746 3.604 1.36 5.312 1.36 1.583 0 3.272-2.007 4.762-1.795 1.698.243 1.9 5.614 1.543 8.044z" fill="#a00" stroke="#000" stroke-width="2" stroke-linecap="round" stroke-linejoin="round"/><path d="M57.038 24.093c-3.158-.566-4.432 4.863-5.724 4.863-1.291 0-.873.607-.873-.615s2.967-6.46 4.258-6.46c1.292 0 3.541 2.428 2.339 2.212z"/><text transform="matrix(1.97496 0 0 3.29058 -496.614 -29.626)" style="-inkscape-font-specification:'Gidugu, Normal';font-variant-ligatures:normal;font-variant-caps:normal;font-variant-numeric:normal;font-variant-east-asian:normal;white-space:pre;shape-inside:url(#b)" font-weight="400" font-size="12" font-family="Gidugu" stroke="#001" stroke-width="0" stroke-linecap="round" stroke-linejoin="round"><tspan x="266.65" y="30.458">GIM</tspan></text></svg>