<?xml version="1.0" encoding="UTF-8" standalone="no"?>
<!-- Created with Inkscape (http://www.inkscape.org/) -->

<svg
   width="100mm"
   height="100mm"
   viewBox="0 0 100 100"
   version="1.1"
   id="svg5"
   xml:space="preserve"
   inkscape:version="1.2 (dc2aeda, 2022-05-15)"
   sodipodi:docname="application-icon-without-text.svg"
   xmlns:inkscape="http://www.inkscape.org/namespaces/inkscape"
   xmlns:sodipodi="http://sodipodi.sourceforge.net/DTD/sodipodi-0.dtd"
   xmlns="http://www.w3.org/2000/svg"
   xmlns:svg="http://www.w3.org/2000/svg"><sodipodi:namedview
     id="namedview7"
     pagecolor="#ffffff"
     bordercolor="#000000"
     borderopacity="0.25"
     inkscape:showpageshadow="2"
     inkscape:pageopacity="0.0"
     inkscape:pagecheckerboard="0"
     inkscape:deskcolor="#d1d1d1"
     inkscape:document-units="mm"
     showgrid="true"
     inkscape:zoom="1.9704153"
     inkscape:cx="195.89779"
     inkscape:cy="188.53893"
     inkscape:window-width="1920"
     inkscape:window-height="1016"
     inkscape:window-x="0"
     inkscape:window-y="0"
     inkscape:window-maximized="1"
     inkscape:current-layer="layer1"><inkscape:grid
       type="xygrid"
       id="grid352" /></sodipodi:namedview><defs
     id="defs2"><rect
       x="266.64945"
       y="19.624273"
       width="74.676913"
       height="48.302397"
       id="rect9946" /><rect
       x="138.30365"
       y="208.22466"
       width="70.493943"
       height="53.867134"
       id="rect9940" /></defs><g
     inkscape:label="Layer 1"
     inkscape:groupmode="layer"
     id="layer1"><path
       id="rect528"
       style="fill:#ac7137;fill-opacity:1;stroke:#000000;stroke-width:2.71537;stroke-linecap:round;stroke-linejoin:round"
       d="m 24.528238,38.811532 3.654464,-5.373436 3.869849,6.068019 7.547111,-6.957844 4.959439,5.308198 5.660713,-3.937031 5.108259,4.088718 4.4507,-4.973943 5.161622,6.310181 6.279914,-6.613578 2.669843,3.56951 c 0,0 1.64143,1.647937 1.984855,4.136557 l -0.130133,38.001986 c 0.296146,8.246286 -4.017776,7.898054 -6.62159,8.82348 l -40.405799,0.05613 C 26.098731,86.509523 25.236872,84.20854 24.903253,81.458956 Z"
       sodipodi:nodetypes="ccccccccccccccccc" /><rect
       style="fill:#000000;fill-opacity:0;stroke:#000000;stroke-width:2.02044;stroke-linecap:round;stroke-linejoin:round"
       id="rect1135"
       width="0.12170207"
       height="46.502144"
       x="64.744263"
       y="40.243782" /><path
       id="path1191"
       style="fill:#eb8c1d;fill-opacity:1;stroke:#000000;stroke-width:2.25949;stroke-linecap:round;stroke-linejoin:round"
       d="m 45.287556,36.170693 c 1.469356,4.339351 -5.03771,-4.575371 -5.905592,-3.182217 -1.243752,1.99651 -4.980927,5.450443 -6.944039,5.774001 -0.880914,0.145191 -1.77003,-0.878074 -2.379938,-1.582145 -0.813909,-0.939566 -1.264932,-1.766544 -1.831847,-2.887897 -0.615588,-1.217627 -0.92722,-1.213097 -1.621489,-5.425397 -1.812764,-10.998487 -2.695804,-16.665104 0.637156,-17.214442 0.962045,-0.158565 4.799661,-2.0624918 6.794704,-0.122152 4.91669,4.781875 8.701623,17.111211 11.251045,24.640249 z"
       sodipodi:nodetypes="sssssssss" /><path
       id="path1246"
       style="fill:#5ccbe0;stroke:#000000;stroke-width:2;stroke-linecap:round;stroke-linejoin:round"
       d="m 71.523465,30.985685 c 0,1.14828 -1.47057,2.863029 -2.707868,4.827758 -0.856152,1.3595 -1.994395,3.737442 -3.91532,3.370746 -1.880254,-0.358932 -1.284397,-1.379704 -2.985814,-3.365547 -1.399613,-1.633587 -2.488076,-0.452108 -2.488076,-3.172841 0,-1.799243 2.703396,-8.660392 4.108445,-9.520169 0.719602,-0.440338 3.162294,-0.125284 4.061266,-0.125284 2.65425,0 3.927368,5.264608 3.927368,7.985341 z"
       sodipodi:nodetypes="sssssssss" /><ellipse
       style="fill:#5025ff;fill-opacity:1;stroke:#000000;stroke-width:2;stroke-linecap:round;stroke-linejoin:round"
       id="path9361"
       cx="66.616287"
       cy="20.804951"
       rx="3.1772995"
       ry="2.7865298" /><ellipse
       style="fill:#ffffff;fill-opacity:0.58263373;stroke:#ffffff;stroke-width:0.69346;stroke-linecap:round;stroke-linejoin:round;stroke-opacity:0"
       id="path10247"
       cx="60.933353"
       cy="42.505508"
       rx="0.69680655"
       ry="2.6228559"
       transform="rotate(-12.295086)" /><path
       id="path13421"
       style="stroke:#ffffff;stroke-width:0;stroke-linecap:round;stroke-linejoin:round;stroke-dasharray:none"
       d="m 36.265591,17.266069 c 0.228703,0.41479 -2.128221,0.706837 -4.635901,1.792081 -2.507682,1.085244 -4.216512,2.552725 -4.445214,2.137934 -0.228703,-0.41479 1.280677,-2.361274 3.788358,-3.446518 2.507681,-1.085245 5.064057,-0.898288 5.292757,-0.483497 z"
       sodipodi:nodetypes="sssss" /><path
       id="path13421-3"
       style="stroke:#ffffff;stroke-width:0;stroke-linecap:round;stroke-linejoin:round;stroke-dasharray:none"
       d="m 38.363278,22.987628 c 0.228704,0.41479 -2.128221,0.706837 -4.635901,1.792081 -2.507681,1.085243 -4.216512,2.552725 -4.445214,2.137934 -0.228702,-0.41479 1.280678,-2.361274 3.788358,-3.446518 2.507682,-1.085245 5.064058,-0.898289 5.292757,-0.483497 z"
       sodipodi:nodetypes="sssss" /><path
       id="path13421-3-7"
       style="stroke:#ffffff;stroke-width:0;stroke-linecap:round;stroke-linejoin:round;stroke-dasharray:none"
       d="m 39.799167,29.236649 c 0.228703,0.41479 -2.128221,0.706837 -4.635901,1.792082 -2.507681,1.085243 -4.216512,2.552725 -4.445214,2.137933 -0.228702,-0.41479 1.280678,-2.361273 3.788358,-3.446518 2.507682,-1.085244 5.064058,-0.898288 5.292757,-0.483497 z"
       sodipodi:nodetypes="sssss" /><path
       id="path508"
       style="fill:#aa0000;stroke:#000000;stroke-width:2;stroke-linecap:round;stroke-linejoin:round;stroke-dasharray:none;stroke-opacity:1"
       d="m 57.761027,35.539384 c -0.288686,1.970299 -1.690368,3.061714 -3.166815,2.421906 -1.329574,-0.57616 -2.648775,-2.801972 -4.499052,-2.801972 -3.904948,0 -5.756601,3.055277 -5.756601,-0.729301 0,-2.129676 -0.02486,-5.123024 1.805145,-6.499122 2.323035,-1.746836 3.604307,1.358769 5.311843,1.358768 1.583595,0 3.272307,-2.006967 4.762914,-1.794258 1.697354,0.242212 1.898717,5.61322 1.542566,8.043979 z"
       sodipodi:nodetypes="ssssssss" /><path
       id="path1472"
       style="stroke:#000000;stroke-width:0;stroke-linecap:round;stroke-linejoin:round;stroke-dasharray:none"
       d="m 57.037706,24.093451 c -3.15763,-0.566728 -4.432176,4.86233 -5.723597,4.86233 -1.291421,0 -0.872807,0.607155 -0.872807,-0.614741 0,-1.221896 2.966659,-6.460028 4.25808,-6.460028 1.291421,0 3.541003,2.428295 2.338324,2.212439 z"
       sodipodi:nodetypes="sssss" /><text
       xml:space="preserve"
       transform="scale(0.26458333)"
       id="text9938"
       style="font-size:12px;font-family:FontAwesome;-inkscape-font-specification:'FontAwesome, Normal';white-space:pre;shape-inside:url(#rect9940);display:inline;fill:#000000;fill-opacity:0;stroke:#000011;stroke-width:7.55906;stroke-linecap:round;stroke-linejoin:round;stroke-dasharray:none;stroke-opacity:1" /></g></svg>
